<?xml version="1.0" ?><!DOCTYPE svg  PUBLIC '-//W3C//DTD SVG 1.1//EN'  'http://www.w3.org/Graphics/SVG/1.1/DTD/svg11.dtd'><svg enable-background="new 0 0 33 33" height="33px" id="Layer_1" version="1.1" viewBox="0 0 33 33" width="33px" xml:space="preserve" xmlns="http://www.w3.org/2000/svg" xmlns:xlink="http://www.w3.org/1999/xlink"><g><path d="M30.709,2.474H2.291C1.303,2.474,0.5,3.284,0.5,4.278v19.199c0,0.994,0.803,1.803,1.791,1.803h10.925   l-0.346,2.207h-2.002c-0.569,0-1.03,0.467-1.03,1.043v0.955c0,0.576,0.461,1.041,1.03,1.041h5.631h5.631   c0.569,0,1.032-0.465,1.032-1.041V28.53c0-0.576-0.463-1.043-1.032-1.043h-2l-0.346-2.207h10.925c0.988,0,1.791-0.809,1.791-1.803   V4.278C32.5,3.284,31.697,2.474,30.709,2.474z M31.53,23.478c0,0.459-0.368,0.834-0.821,0.834H2.291   c-0.453,0-0.821-0.375-0.821-0.834V4.278c0-0.461,0.368-0.834,0.821-0.834h28.418c0.453,0,0.821,0.373,0.821,0.834V23.478z" fill="#231F20"/><path d="M25.806,11.968c-1.146-2.848-1.61-3.732-2.277-3.732c-0.675,0-0.876,0.676-1.789,6.033   c-0.356,2.1-0.87,5.111-1.268,6.248c-0.519-1.207-1.367-4.594-2.012-7.168c-1.632-6.516-1.955-7.418-2.658-7.418   c-0.709,0-1.112,0.99-2.697,6.615c-0.435,1.537-0.949,3.367-1.293,4.291c-0.238-0.674-0.539-1.807-0.759-2.635   c-0.853-3.225-1.143-4.043-1.814-4.043c-0.638,0-1.146,0.785-2.075,2.451c-0.214,0.383-0.497,0.891-0.65,1.094H3.251v0.971h3.427   c0.443,0,0.685-0.434,1.333-1.594c0.309-0.555,0.851-1.523,1.125-1.852c0.277,0.563,0.692,2.135,0.98,3.221   c0.817,3.088,1.073,3.811,1.708,3.811c0.607,0,0.835-0.561,2.214-5.453c0.522-1.855,1.269-4.506,1.735-5.559   c0.445,1.143,1.183,4.088,1.745,6.336c1.776,7.084,2.191,8.238,2.968,8.238c0.809,0,1.139-1.105,2.21-7.391   c0.308-1.811,0.678-3.984,0.952-4.926c0.382,0.648,0.932,2.014,1.258,2.824c0.782,1.941,0.944,2.309,1.41,2.309h3.433v-0.971   h-3.215C26.365,13.358,26.06,12.599,25.806,11.968z" fill="#231F20"/></g></svg>